<svg xmlns="http://www.w3.org/2000/svg" width="956.464" height="619" viewBox="0 0 956.464 619">
  <g id="Grupo_4342" data-name="Grupo 4342" transform="translate(-98 -1126)">
    <path id="Trazado_10120" data-name="Trazado 10120" d="M2459-5616s-19.485.836-23.651,20.1-31.437,141.9-31.437,141.9H2459Z" transform="translate(-1815 6742)" fill="#e1c263"/>
    <path id="Trazado_10122" data-name="Trazado 10122" d="M2403.912-5616s19.485.836,23.651,20.1S2459-5454,2459-5454h-55.088Z" transform="translate(-1895 6742)" fill="#e4f39b"/>
    <path id="Trazado_10121" data-name="Trazado 10121" d="M2459-5454s-19.485-.836-23.651-20.1-31.437-141.9-31.437-141.9H2459Z" transform="translate(-1815 7086)" fill="#e1c263"/>
    <path id="Trazado_10123" data-name="Trazado 10123" d="M2403.912-5454s19.485-.836,23.651-20.1S2459-5616,2459-5616h-55.088Z" transform="translate(-1895 7086)" fill="#e4f39b"/>
    <path id="Rectángulo_2423" data-name="Rectángulo 2423" d="M0,0H404a30,30,0,0,1,30,30V132a30,30,0,0,1-30,30H0a0,0,0,0,1,0,0V0A0,0,0,0,1,0,0Z" transform="translate(589 1298)" fill="#e1c263"/>
    <path id="Rectángulo_2408" data-name="Rectángulo 2408" d="M30,0H434a0,0,0,0,1,0,0V162a0,0,0,0,1,0,0H30A30,30,0,0,1,0,132V30A30,30,0,0,1,30,0Z" transform="translate(130 1298)" fill="#e4f39b"/>
    <path id="Rectángulo_2421" data-name="Rectángulo 2421" d="M30,0H379a0,0,0,0,1,0,0V162a0,0,0,0,1,0,0H30A30,30,0,0,1,0,132V30A30,30,0,0,1,30,0Z" transform="translate(130 1470)" fill="#e4f39b"/>
    <path id="Rectángulo_2424" data-name="Rectángulo 2424" d="M0,0H349a30,30,0,0,1,30,30V132a30,30,0,0,1-30,30H0a0,0,0,0,1,0,0V0A0,0,0,0,1,0,0Z" transform="translate(644 1470)" fill="#e1c263"/>
    <path id="Rectángulo_2422" data-name="Rectángulo 2422" d="M0,0H349a30,30,0,0,1,30,30V132a30,30,0,0,1-30,30H0a0,0,0,0,1,0,0V0A0,0,0,0,1,0,0Z" transform="translate(644 1126)" fill="#e1c263"/>
    <path id="Rectángulo_2420" data-name="Rectángulo 2420" d="M30,0H379a0,0,0,0,1,0,0V162a0,0,0,0,1,0,0H30A30,30,0,0,1,0,132V30A30,30,0,0,1,30,0Z" transform="translate(130 1126)" fill="#e4f39b"/>
    <text id="Decreto_2649_de_1992_Art._1_conjunto_de_conceptos_básicos_y_de_reglas_que_deben_ser_observados_al_registrar_e_informar_contablemente_" data-name="Decreto 2649 de 1992 Art. 1

“…conjunto de conceptos básicos y de reglas que deben ser observados al registrar e informar contablemente…”" transform="translate(223 1146)" fill="#00223d" font-size="16" font-family="OpenSans-Bold, Open Sans" font-weight="700"><tspan x="0" y="17">Decreto 2649 de 1992 Art. 1</tspan><tspan x="0" y="37"></tspan><tspan font-family="OpenSans, Open Sans" font-weight="400"><tspan x="0" y="57">“…conjunto de conceptos básicos y </tspan><tspan x="0" y="77">de reglas que deben ser </tspan><tspan x="0" y="97">observados al registrar e informar </tspan><tspan x="0" y="117">contablemente…”</tspan></tspan></text>
    <text id="Decreto_2650_de_1993_Plan_único_de_cuentas_Catálogo_de_cuentas_Descripción_y_dinámica_Registro_contable_de_operaciones_económicas_" data-name="Decreto 2650 de 1993

• Plan único de cuentas
• Catálogo de cuentas
• Descripción y dinámica
• Registro contable de
   operaciones económicas…" transform="translate(223 1311)" fill="#00223d" font-size="16" font-family="OpenSans-Bold, Open Sans" font-weight="700"><tspan x="0" y="17">Decreto 2650 de 1993</tspan><tspan x="0" y="37"></tspan><tspan font-family="OpenSans, Open Sans" font-weight="400"><tspan x="0" y="57">• Plan único de cuentas</tspan><tspan x="0" y="77">• Catálogo de cuentas</tspan><tspan x="0" y="97">• Descripción y dinámica</tspan><tspan x="0" y="117">• Registro contable de</tspan><tspan x="0" y="137" xml:space="preserve">   operaciones económicas…</tspan></tspan></text>
    <text id="Decreto_2649_de_1993_Art._22_Balance_general_Estado_de_resultados_Estado_de_cambios_en_el_patrimonio_Estado_de_flujos_de_efectivo_" data-name="Decreto 2649 de 1993, Art. 22

Balance general, Estado de resultados, Estado de cambios en el patrimonio, Estado de flujos de efectivo…" transform="translate(223 1490)" fill="#00223d" font-size="16" font-family="OpenSans-Bold, Open Sans" font-weight="700"><tspan x="0" y="17">Decreto 2649 de 1993, Art. 22</tspan><tspan font-family="OpenSans, Open Sans" font-weight="400"><tspan x="0" y="37"></tspan><tspan x="0" y="57">Balance general, Estado de </tspan><tspan x="0" y="77">resultados, Estado de cambios en el </tspan><tspan x="0" y="97">patrimonio, Estado de flujos de </tspan><tspan x="0" y="117">efectivo…</tspan></tspan></text>
    <text id="Ley_1314_de_2009_Art._3_compuesto_por_postulados_principios_limitaciones_conceptos_normas_técnicas_interpretaciones_y_guías_" data-name="Ley 1314 de 2009, Art. 3

“…compuesto por postulados, principios, limitaciones, conceptos, normas técnicas… interpretaciones y guías…”" transform="translate(671 1146)" fill="#00223d" font-size="16" font-family="OpenSans-Bold, Open Sans" font-weight="700"><tspan x="0" y="17">Ley 1314 de 2009, Art. 3</tspan><tspan x="0" y="37"></tspan><tspan font-family="OpenSans, Open Sans" font-weight="400"><tspan x="0" y="57">“…compuesto por postulados, </tspan><tspan x="0" y="77">principios, limitaciones, conceptos, </tspan><tspan x="0" y="97">normas técnicas… interpretaciones </tspan><tspan x="0" y="117">y guías…”</tspan></tspan></text>
    <text id="Decretos_reglamentarios:_Decreto_2420_de_2015_Marcos_normativos:_NIC_NIIF_Interpretaciones" data-name="Decretos reglamentarios: Decreto 2420 de 2015

• Marcos normativos:
   NIC, NIIF
• Interpretaciones" transform="translate(691 1325)" fill="#00223d" font-size="16" font-family="OpenSans-Bold, Open Sans" font-weight="700"><tspan x="0" y="17">Decretos reglamentarios: </tspan><tspan x="0" y="37">Decreto 2420 de 2015</tspan><tspan font-family="OpenSans, Open Sans" font-weight="400"><tspan x="0" y="57"></tspan><tspan x="0" y="77">• Marcos normativos:</tspan><tspan x="0" y="97" xml:space="preserve">   NIC, NIIF</tspan><tspan x="0" y="117">• Interpretaciones</tspan></tspan></text>
    <text id="Presentación_de_Estados_Financieros_NIC_1._Párrafo_10_NIIF_para_Pymes._Sección_3_3.17_Taxonomías" data-name="Presentación de Estados Financieros

• NIC 1. Párrafo 10
• NIIF para Pymes. Sección 3, 3.17
• Taxonomías" transform="translate(671 1491)" fill="#00223d" font-size="16" font-family="OpenSans-Bold, Open Sans" font-weight="700"><tspan x="0" y="17">Presentación de Estados </tspan><tspan x="0" y="37">Financieros</tspan><tspan font-family="OpenSans, Open Sans" font-weight="400"><tspan x="0" y="57"></tspan><tspan x="0" y="77">• NIC 1. Párrafo 10</tspan><tspan x="0" y="97">• NIIF para Pymes. Sección 3, 3.17</tspan><tspan x="0" y="117">• Taxonomías</tspan></tspan></text>
    <text id="Reglas_Principios" data-name="Reglas / Principios" transform="translate(170 1694)" fill="#00223d" font-size="16" font-family="OpenSans-Bold, Open Sans" font-weight="700"><tspan x="28.418" y="17">Reglas / Principios</tspan></text>
    <text id="Reglas_Principios-2" data-name="Reglas / Principios" transform="translate(828 1692)" fill="#00223d" font-size="16" font-family="OpenSans-Bold, Open Sans" font-weight="700"><tspan x="28.418" y="17">Reglas / Principios</tspan></text>
    <text id="Registro_contable" data-name="Registro contable" transform="translate(486 1692)" fill="#00223d" font-size="16" font-family="OpenSans-Bold, Open Sans" font-weight="700"><tspan x="31.219" y="17">Registro contable</tspan></text>
    <g id="Grupo_4333" data-name="Grupo 4333" transform="translate(-1435.511 7670.957)">
      <path id="Trazado_1321" data-name="Trazado 1321" d="M1049.168,112.822a6.915,6.915,0,0,1-4.082,8.843l-55.022,19.94a6.906,6.906,0,0,1-8.8-4.182l-28.33-78.229a6.9,6.9,0,0,1,4.073-8.843l55.076-19.913a6.9,6.9,0,0,1,8.789,4.173Z" transform="translate(599 -6206)" fill="#18627d"/>
      <rect id="Rectángulo_666" data-name="Rectángulo 666" width="63.539" height="16.41" transform="translate(1579.486 -6083.413) rotate(-19.91)" fill="#fff"/>
      <path id="Trazado_1322" data-name="Trazado 1322" d="M999.839,41.02,956.62,56.669l28.864,79.687,59.747-21.641-22.881-63.15Z" transform="translate(598.61 -6207.042)" fill="#fff"/>
      <path id="Trazado_1323" data-name="Trazado 1323" d="M1010.352,57.556l16.537-5.992L1004.36,41.02Z" transform="translate(594.08 -6207.042)" fill="#c8c8ca"/>
      <path id="Trazado_8160" data-name="Trazado 8160" d="M0,0H55.475V5.069H0Z" transform="translate(1580.708 -6091.873) rotate(-19.91)" fill="#c8c8ca"/>
      <rect id="Rectángulo_668" data-name="Rectángulo 668" width="55.475" height="5.069" transform="translate(1577.279 -6101.353) rotate(-19.91)" fill="#c8c8ca"/>
      <rect id="Rectángulo_669" data-name="Rectángulo 669" width="55.475" height="5.069" transform="translate(1573.841 -6110.833) rotate(-19.91)" fill="#c8c8ca"/>
      <rect id="Rectángulo_670" data-name="Rectángulo 670" width="55.475" height="5.069" transform="translate(1570.237 -6120.792) rotate(-19.91)" fill="#c8c8ca"/>
      <rect id="Rectángulo_671" data-name="Rectángulo 671" width="37.508" height="5.069" transform="translate(1566.804 -6130.274) rotate(-19.91)" fill="#c8c8ca"/>
      <path id="Trazado_1325" data-name="Trazado 1325" d="M996.75,38.5l-3.15,1.14-.905-2.408a3.53,3.53,0,0,0-4.589-1.928l-5.965,2.163a3.53,3.53,0,0,0-2.29,4.417c.353.959.661,1.81.905,2.408l-3.15,1.14a1.656,1.656,0,0,0-.987,2.109l1.693,4.661a1.638,1.638,0,0,0,2.1.987l19.17-6.951a1.656,1.656,0,0,0,.987-2.109l-1.711-4.6A1.656,1.656,0,0,0,996.75,38.5Zm-11.124-.833a2.009,2.009,0,1,1-1.2,2.571,2.009,2.009,0,0,1,1.2-2.571Z" transform="translate(596.722 -6206.475)" fill="#f85b30"/>
    </g>
    <g id="Grupo_4334" data-name="Grupo 4334" transform="translate(-596.511 7657)">
      <path id="Trazado_1321-2" data-name="Trazado 1321" d="M1049.168,112.822a6.915,6.915,0,0,1-4.082,8.843l-55.022,19.94a6.906,6.906,0,0,1-8.8-4.182l-28.33-78.229a6.9,6.9,0,0,1,4.073-8.843l55.076-19.913a6.9,6.9,0,0,1,8.789,4.173Z" transform="translate(599 -6206)" fill="#18627d"/>
      <rect id="Rectángulo_666-2" data-name="Rectángulo 666" width="63.539" height="16.41" transform="translate(1579.486 -6083.413) rotate(-19.91)" fill="#fff"/>
      <path id="Trazado_1322-2" data-name="Trazado 1322" d="M999.839,41.02,956.62,56.669l28.864,79.687,59.747-21.641-22.881-63.15Z" transform="translate(598.61 -6207.042)" fill="#fff"/>
      <path id="Trazado_1323-2" data-name="Trazado 1323" d="M1010.352,57.556l16.537-5.992L1004.36,41.02Z" transform="translate(594.08 -6207.042)" fill="#c8c8ca"/>
      <path id="Trazado_8160-2" data-name="Trazado 8160" d="M0,0H55.475V5.069H0Z" transform="translate(1580.708 -6091.873) rotate(-19.91)" fill="#c8c8ca"/>
      <rect id="Rectángulo_668-2" data-name="Rectángulo 668" width="55.475" height="5.069" transform="translate(1577.279 -6101.353) rotate(-19.91)" fill="#c8c8ca"/>
      <rect id="Rectángulo_669-2" data-name="Rectángulo 669" width="55.475" height="5.069" transform="translate(1573.841 -6110.833) rotate(-19.91)" fill="#c8c8ca"/>
      <rect id="Rectángulo_670-2" data-name="Rectángulo 670" width="55.475" height="5.069" transform="translate(1570.237 -6120.792) rotate(-19.91)" fill="#c8c8ca"/>
      <rect id="Rectángulo_671-2" data-name="Rectángulo 671" width="37.508" height="5.069" transform="translate(1566.804 -6130.274) rotate(-19.91)" fill="#c8c8ca"/>
      <path id="Trazado_1325-2" data-name="Trazado 1325" d="M996.75,38.5l-3.15,1.14-.905-2.408a3.53,3.53,0,0,0-4.589-1.928l-5.965,2.163a3.53,3.53,0,0,0-2.29,4.417c.353.959.661,1.81.905,2.408l-3.15,1.14a1.656,1.656,0,0,0-.987,2.109l1.693,4.661a1.638,1.638,0,0,0,2.1.987l19.17-6.951a1.656,1.656,0,0,0,.987-2.109l-1.711-4.6A1.656,1.656,0,0,0,996.75,38.5Zm-11.124-.833a2.009,2.009,0,1,1-1.2,2.571,2.009,2.009,0,0,1,1.2-2.571Z" transform="translate(596.722 -6206.475)" fill="#f85b30"/>
    </g>
    <g id="Grupo_4339" data-name="Grupo 4339" transform="translate(-755.929 7852)">
      <path id="Trazado_1321-3" data-name="Trazado 1321" d="M1007.69,77.3a3.948,3.948,0,0,1-2.33,5.048L973.949,93.731a3.942,3.942,0,0,1-5.022-2.387L952.753,46.685a3.937,3.937,0,0,1,2.325-5.048L986.52,30.269a3.937,3.937,0,0,1,5.017,2.382Z" transform="translate(599 -6206)" fill="#18627d"/>
      <rect id="Rectángulo_666-3" data-name="Rectángulo 666" width="36.273" height="9.368" transform="translate(1567.481 -6123.125) rotate(-19.91)" fill="#fff"/>
      <path id="Trazado_1322-3" data-name="Trazado 1322" d="M981.293,41.02,956.62,49.954,973.1,95.445l34.108-12.355L994.143,47.04Z" transform="translate(597.014 -6211.305)" fill="#fff"/>
      <path id="Trazado_1323-3" data-name="Trazado 1323" d="M1007.781,50.46l9.44-3.421-12.861-6.02Z" transform="translate(573.942 -6211.305)" fill="#c8c8ca"/>
      <path id="Trazado_8160-3" data-name="Trazado 8160" d="M0,0H31.669V2.894H0Z" transform="translate(1568.179 -6127.956) rotate(-19.91)" fill="#c8c8ca"/>
      <rect id="Rectángulo_668-3" data-name="Rectángulo 668" width="31.669" height="2.894" transform="translate(1566.221 -6133.367) rotate(-19.91)" fill="#c8c8ca"/>
      <rect id="Rectángulo_669-3" data-name="Rectángulo 669" width="31.669" height="2.894" transform="translate(1564.258 -6138.779) rotate(-19.91)" fill="#c8c8ca"/>
      <rect id="Rectángulo_670-3" data-name="Rectángulo 670" width="31.669" height="2.894" transform="translate(1562.201 -6144.464) rotate(-19.91)" fill="#c8c8ca"/>
      <rect id="Rectángulo_671-3" data-name="Rectángulo 671" width="21.412" height="2.894" transform="translate(1560.241 -6149.878) rotate(-19.91)" fill="#c8c8ca"/>
      <path id="Trazado_1325-3" data-name="Trazado 1325" d="M988.07,37.016l-1.8.651-.517-1.374a2.015,2.015,0,0,0-2.62-1.1l-3.405,1.235a2.015,2.015,0,0,0-1.307,2.522c.2.548.377,1.033.517,1.374l-1.8.651a.946.946,0,0,0-.563,1.2l.966,2.661a.935.935,0,0,0,1.2.563l10.944-3.968a.946.946,0,0,0,.563-1.2l-.977-2.625a.946.946,0,0,0-1.2-.589Zm-6.35-.475a1.147,1.147,0,1,1-.687,1.467,1.147,1.147,0,0,1,.687-1.467Z" transform="translate(587.395 -6208.417)" fill="#f85b30"/>
    </g>
    <g id="Grupo_4334-2" data-name="Grupo 4334" transform="translate(955 1294.311)">
      <g id="Grupo_4153" data-name="Grupo 4153" transform="translate(21.107 71.791)">
        <path id="Trazado_8172" data-name="Trazado 8172" d="M601.652,338.89s1.022,6.868.681,7.174-6.082.952-6.082.952l-.68-.848s-4.588,2.094-6.73,2.156a29.423,29.423,0,0,1-5.267-.213,2.364,2.364,0,0,1,.393-2.339c.681-.613,7.669-3.1,8.971-4.435a8.633,8.633,0,0,0,1.715-2.308Z" transform="translate(-583.417 -267.524)" fill="#151528"/>
        <path id="Trazado_8173" data-name="Trazado 8173" d="M628.817,350.9s1.548,6.115,1.259,6.47-5.865,1.87-5.865,1.87l-.8-.733s-4.215,2.771-6.323,3.159a29.325,29.325,0,0,1-5.237.594,2.361,2.361,0,0,1,.031-2.371c.579-.709,7.106-4.231,8.187-5.752a8.663,8.663,0,0,0,1.342-2.544Z" transform="translate(-585.433 -268.384)" fill="#151528"/>
        <path id="Trazado_8174" data-name="Trazado 8174" d="M625.787,263.283c-.051,4.7-1.345,31.928-1.97,39.2-.679,7.9,4.872,43.25,4.872,43.25l-10.063.575s-6.921-35.625-6.939-39.242c-.009-1.8-.7-15.67-1.679-25.75-3.514,9.2-6.671,21.119-6.677,23.055-.012,3.976-.6,29.759-.6,29.759l-8.977,1.037s-2.81-27.988-2.828-31.605c-.018-3.431,6.941-38.3,7.952-41.547Z" transform="translate(-583.956 -262.014)" fill="#0b375a"/>
        <path id="Trazado_8175" data-name="Trazado 8175" d="M615.844,290.407c2.03,8.122.761,19.29,2.792,26.143,1.693,5.715,6.03,24.129,6.248,30.974l-4.779.273s-6.921-35.625-6.939-39.242c-.009-1.754-.665-14.948-1.6-24.947a3.555,3.555,0,0,1,.727-.814S613.813,282.285,615.844,290.407Z" transform="translate(-585.435 -263.503)" fill="#09314c"/>
        <path id="Trazado_8176" data-name="Trazado 8176" d="M625.787,263.283c-.02,1.754-.212,6.65-.478,12.473a12.219,12.219,0,0,0-5.36-1.305c-6.853-.254-17.513-.761-19.036,2.284s-5.837,23.1-5.33,28.427c.4,4.2,2.06,21.947,2.249,29.534l-4.074.471s-2.81-27.988-2.828-31.605c-.018-3.431,6.941-38.3,7.952-41.547Z" transform="translate(-583.956 -262.014)" fill="#09314c"/>
      </g>
      <path id="Trazado_8177" data-name="Trazado 8177" d="M580.292,211.058a42.1,42.1,0,0,1-1.6-5.059c-.124-1.11-.741-5.553-1.6-4.32s0,4.937-.617,4.32-4.073-4.32-5.43-3.7-1.851,2.222-.37,4.936,4.566,4.443,5.183,4.937,1.728,2.591,2.1,2.468S580.292,211.058,580.292,211.058Z" transform="translate(-561.331 -185.883)" fill="#fca88e"/>
      <path id="Trazado_8178" data-name="Trazado 8178" d="M611.119,212.452s-15.738,7.121-18.329,7.492-11.847-9.873-11.847-9.873-3.949,3.085-3.826,3.455,8.493,13.1,15.23,14.138,19.323-5.129,19.941-6.486S613.34,213.933,611.119,212.452Z" transform="translate(-561.858 -186.5)" fill="#3bb6d7"/>
      <path id="Trazado_8179" data-name="Trazado 8179" d="M628.3,268.432s-21.05.99-31.262-5.965c0,0,10.459-45.852,12.944-48.224,4.781-4.564,13.368-2.23,19.669.812s4.346,11.517,3.259,17.384S627.837,247.446,628.3,268.432Z" transform="translate(-563.286 -186.615)" fill="#53d5f4"/>
      <path id="Trazado_8180" data-name="Trazado 8180" d="M597.035,262.467s10.46-45.852,12.945-48.224c4.781-4.564,13.368-2.23,19.669.812s4.346,11.517,3.259,17.384c-.641,3.46-2.288,8.059-3.438,15.55a20.857,20.857,0,0,1-6.937,3.838c-7.149,2.076-13.376,1.614-15.221,3.92-1.336,1.67,2.524,7.207,3.883,11.625C606.069,266.521,600.812,265.039,597.035,262.467Z" transform="translate(-563.286 -186.615)" fill="#3bb6d7"/>
      <path id="Trazado_8181" data-name="Trazado 8181" d="M627.676,206.476s-.733,6.116-.372,7.745-1.986,4.738-6.355,4.235c-2.762-.318-3.737-1.5-3.77-3.843s1.2-3.75.957-7.717S627.126,205.716,627.676,206.476Z" transform="translate(-564.729 -186.123)" fill="#ed9983"/>
      <path id="Trazado_8182" data-name="Trazado 8182" d="M630.578,202.674s1.311-.782,1.03.849a4.666,4.666,0,0,1-3.728,3.348s-4.178,4.739-9.073,3.893-4.548-6.749-3.993-9.719,2.931-10.163,6.52-10.762,10.162,2.931,10.973,5.3S630.578,202.674,630.578,202.674Z" transform="translate(-564.538 -185.077)" fill="#fca88e"/>
      <path id="Trazado_8183" data-name="Trazado 8183" d="M630.611,202.578s1.721.351-.1,2.557a9.232,9.232,0,0,1-2.516,1.34,5.562,5.562,0,0,0,4.026-2.375,17.578,17.578,0,0,0,3.464-6.1,5.549,5.549,0,0,0-.558-3.228,5.289,5.289,0,0,0-1.765-4.893c-2.354-1.9-4.827-2.273-6.1-3.339s-2.133-1.717-3.69-1.663-2.074-.286-2.705-.178-1.266,1.292-1.835,1.878-1.689,1.131-1.613,1.936.655,1.625.391,2.118a12.754,12.754,0,0,0-.982,1.829,26.5,26.5,0,0,0-.492,4s2.841-3.631,3.356-4.118,1.534-.959,1.83-.8a11.193,11.193,0,0,0,2.229,1.9c1.113.535,3.248.471,3.693.71s.958.7,1.55,1.023a15.441,15.441,0,0,0,2.614.7,4.379,4.379,0,0,0-1.6,1.684c-.739,1.259-.24,2.226-.307,3.655a15.144,15.144,0,0,1-.681,2.69C628.912,204.085,630.038,202.461,630.611,202.578Z" transform="translate(-564.655 -184.68)" fill="#151528"/>
      <g id="Grupo_4161" data-name="Grupo 4161" transform="translate(0 9.826)">
        <path id="Trazado_8184" data-name="Trazado 8184" d="M567.775,206.739l3.289,2.118a23.29,23.29,0,0,1,5.518.337,45.8,45.8,0,0,1,10.686,3.374l0,0,.1.046q.8.357,1.6.74l.122.06c.475.229.951.468,1.424.711.066.033.132.064.2.1l0,0q1.486.77,2.95,1.624h0l.044.026q.862.5,1.712,1.035l.3.191c.545.344,1.087.693,1.622,1.053l.07.046q.822.551,1.624,1.127l.344.248c.532.385,1.059.774,1.577,1.172l0,0h0a58.866,58.866,0,0,1,6.8,6.081l0,0c.038.04.073.08.111.12.143.151.283.3.422.456s.278.3.413.455.258.29.385.435l.177.2,0,0a38.037,38.037,0,0,1,2.686,3.484,23.263,23.263,0,0,1,2.589,4.886l3.285,2.117-3.426,5.317-.014-.01c-1.773,2.718-5.97,3.872-12.18,2.818a49.34,49.34,0,0,1-13.745-4.83h0l-.093-.049q-1-.51-1.983-1.057l-.075-.041h0a69.8,69.8,0,0,1-7.191-4.608h0l-.028-.021q-.8-.59-1.586-1.2l-.29-.227q-1.555-1.225-3-2.516l-.279-.252q-.711-.643-1.391-1.3l-.018-.017h0q-1.734-1.683-3.215-3.428l0,0c-.03-.035-.058-.071-.086-.106-.227-.268-.447-.538-.663-.808-.072-.089-.145-.177-.215-.267-.27-.343-.533-.688-.784-1.032l-.028-.036h0q-.362-.5-.7-.994c-3.527-5.217-4.212-9.515-2.47-12.254l-.019-.011Z" transform="translate(-560.879 -196.088)" fill="#e28e07"/>
        <g id="Grupo_4154" data-name="Grupo 4154" transform="translate(2.571 10.969)">
          <path id="Trazado_8185" data-name="Trazado 8185" d="M580.321,210.178q1.363.365,2.755.836L571.2,229.451q-.76-.815-1.463-1.641l0,0c-.03-.035-.058-.071-.086-.106-.119-.14-.231-.28-.345-.421Z" transform="translate(-563.87 -207.303)" fill="#cc7b06"/>
          <path id="Trazado_8186" data-name="Trazado 8186" d="M586.17,212.19c.608.245,1.216.5,1.826.769l0,0,.1.046c.216.1.433.2.649.3l-13.065,20.282c-.244-.212-.494-.421-.733-.635l-.279-.252c-.364-.33-.717-.663-1.068-1Z" transform="translate(-564.178 -207.447)" fill="#cc7b06"/>
          <path id="Trazado_8187" data-name="Trazado 8187" d="M574,209.03a27.429,27.429,0,0,1,2.737.329c.1.018.205.04.307.059l-9.872,15.324c-.059-.085-.122-.171-.179-.255-.548-.81-1.018-1.595-1.431-2.358Z" transform="translate(-563.602 -207.221)" fill="#cc7b06"/>
          <path id="Trazado_8188" data-name="Trazado 8188" d="M568.267,207.081l2.328,1.5-6.579,10.212a9.855,9.855,0,0,1-.495-4.344Z" transform="translate(-563.45 -207.081)" fill="#cc7b06"/>
        </g>
        <g id="Grupo_4160" data-name="Grupo 4160" transform="translate(0 0)">
          <g id="Grupo_4156" data-name="Grupo 4156">
            <ellipse id="Elipse_653" data-name="Elipse 653" cx="12.723" cy="29.754" rx="12.723" ry="29.754" transform="matrix(0.542, -0.841, 0.841, 0.542, 0, 21.392)" fill="#fdcc0e"/>
            <path id="Trazado_8189" data-name="Trazado 8189" d="M580.229,203.694a42.936,42.936,0,0,1,8.293,2.39l-18.53,11.977C563.632,208.027,568.075,201.63,580.229,203.694Z" transform="translate(-561.141 -195.842)" fill="#ffaa0f"/>
            <path id="Trazado_8190" data-name="Trazado 8190" d="M597.81,240.014l18.11-14.446c.674.833,1.316,1.668,1.884,2.508,7.078,10.47,2.715,17.242-9.744,15.126A45.274,45.274,0,0,1,597.81,240.014Z" transform="translate(-563.341 -197.437)" fill="#fce63d"/>
            <ellipse id="Elipse_654" data-name="Elipse 654" cx="10.467" cy="24.477" rx="10.467" ry="24.477" transform="matrix(0.542, -0.841, 0.841, 0.542, 5.658, 22.353)" fill="#ffaa0f"/>
            <g id="Grupo_4155" data-name="Grupo 4155" transform="translate(12.533 12.83)">
              <path id="Trazado_8191" data-name="Trazado 8191" d="M592.546,210.583l-16.754,10.446c-.278-.371-.548-.743-.8-1.115-.3-.44-.564-.87-.812-1.293l14.758-9.535C590.134,209.521,591.341,210.025,592.546,210.583Z" transform="translate(-574.181 -209.086)" fill="#fce63d"/>
              <path id="Trazado_8192" data-name="Trazado 8192" d="M612.589,226,596.3,236.784q-1.128-.512-2.25-1.092l17.129-11.42Q611.929,225.128,612.589,226Z" transform="translate(-575.605 -210.174)" fill="#fce63d"/>
            </g>
            <path id="Trazado_8193" data-name="Trazado 8193" d="M612,226.066c3.039,4.5,3.509,8.161,1.81,10.392,1.216-2.26.589-5.68-2.194-9.8-5.823-8.612-18.851-17.005-29.1-18.746-4.9-.832-8.271.01-9.826,2.053,1.328-2.469,4.86-3.557,10.211-2.649C593.151,209.061,606.181,217.453,612,226.066Z" transform="translate(-561.541 -196.106)" fill="#e28e07"/>
          </g>
          <g id="Grupo_4158" data-name="Grupo 4158" transform="translate(18.447 20.26)">
            <g id="Grupo_4157" data-name="Grupo 4157">
              <path id="Trazado_8194" data-name="Trazado 8194" d="M582.647,222.238l-2.1-2.326.255-.4,3.067.521c-1-2.43.358-3.3,3.166-2.82,5.266.894,9.623,7.187,11.822,7.56,1.157.2,1.159-.255.452-1.3a11.229,11.229,0,0,0-3.1-2.765l1.439-1.586a20.754,20.754,0,0,1,4.913,4.084l2.951.5,1.841,2.724-.3.383-2.713-.894c.987,2.255-.1,3.3-3.024,2.8-5.064-.86-9.623-7.187-11.937-7.58-1.129-.191-1.292.211-.471,1.427a16.171,16.171,0,0,0,3.89,3.631l-.256.4-1.885.833a24.661,24.661,0,0,1-5.125-4.7Z" transform="translate(-580.551 -217.089)" fill="#e28e07"/>
            </g>
          </g>
          <g id="Grupo_4159" data-name="Grupo 4159" transform="translate(18.447 20.657)">
            <path id="Trazado_8195" data-name="Trazado 8195" d="M582.392,222.666l-1.841-2.724,3.067.521c-1-2.429.358-3.3,3.165-2.82,5.266.894,9.623,7.187,11.822,7.561,1.158.2,1.159-.255.453-1.3a11.226,11.226,0,0,0-3.1-2.765l1.439-1.586a20.776,20.776,0,0,1,4.913,4.085l2.951.5,1.841,2.723-3.01-.511c.987,2.256-.1,3.3-3.024,2.8-5.064-.86-9.623-7.187-11.938-7.581-1.128-.191-1.291.212-.47,1.427a16.164,16.164,0,0,0,3.889,3.631l-2.14,1.23a24.643,24.643,0,0,1-5.125-4.7Z" transform="translate(-580.551 -217.517)" fill="#fce63d"/>
          </g>
        </g>
      </g>
      <path id="Trazado_8196" data-name="Trazado 8196" d="M603.1,243.153a17.067,17.067,0,0,1-4.213-.776c-1.108-.554-4.1-3.215-3.88-1.774s1.664,2.218,1.552,2.882-1.663,1.441-3.659,1.441-3.88-.554-3.437.333,1.552,1.108,1.664,1.552a2.5,2.5,0,0,0,.887,1.219,4.645,4.645,0,0,0,1.552,1.108c.776.222.332.776,1.885.776a17.9,17.9,0,0,0,5.654-1.773,19.181,19.181,0,0,1,3.769-.887Z" transform="translate(-562.739 -188.658)" fill="#fcc89d"/>
      <path id="Trazado_8197" data-name="Trazado 8197" d="M630.429,215.7c-1.244-.052-1.3,2.209-1.581,3.422-.849,3.659-3.317,13.245-6.321,15.582-3.733,2.9-19.774,5.116-19.774,6.084s0,4.149,2.212,5.531,24.063-2.627,26.551-5.808,6.3-14.341,4.915-18.628C635.48,218.934,632.336,215.777,630.429,215.7Z" transform="translate(-563.696 -186.903)" fill="#53d5f4"/>
    </g>
    <g id="Grupo_4335" data-name="Grupo 4335" transform="translate(146 1294.311)">
      <g id="Grupo_4153-2" data-name="Grupo 4153" transform="translate(7.189 71.791)">
        <path id="Trazado_8172-2" data-name="Trazado 8172" d="M584.168,338.89s-1.022,6.868-.681,7.174,6.082.952,6.082.952l.68-.848s4.588,2.094,6.73,2.156a29.423,29.423,0,0,0,5.267-.213,2.364,2.364,0,0,0-.393-2.339c-.681-.613-7.669-3.1-8.971-4.435a8.633,8.633,0,0,1-1.715-2.308Z" transform="translate(-557.67 -267.524)" fill="#151528"/>
        <path id="Trazado_8173-2" data-name="Trazado 8173" d="M612.841,350.9s-1.548,6.115-1.259,6.47,5.865,1.87,5.865,1.87l.8-.733s4.215,2.771,6.323,3.159a29.325,29.325,0,0,0,5.237.594,2.361,2.361,0,0,0-.031-2.371c-.579-.709-7.106-4.231-8.187-5.752a8.663,8.663,0,0,1-1.342-2.544Z" transform="translate(-611.491 -268.384)" fill="#151528"/>
        <path id="Trazado_8174-2" data-name="Trazado 8174" d="M593.832,263.283c.051,4.7,1.345,31.928,1.97,39.2.679,7.9-4.872,43.25-4.872,43.25l10.063.575s6.921-35.625,6.939-39.242c.009-1.8.7-15.67,1.679-25.75,3.514,9.2,6.671,21.119,6.677,23.055.012,3.976.6,29.759.6,29.759l8.977,1.037s2.81-27.988,2.828-31.605c.018-3.431-6.941-38.3-7.952-41.547Z" transform="translate(-590.93 -262.014)" fill="#0b375a"/>
        <path id="Trazado_8175-2" data-name="Trazado 8175" d="M620.6,290.407c-2.03,8.122-.761,19.29-2.792,26.143-1.693,5.715-6.03,24.129-6.248,30.974l4.779.273s6.921-35.625,6.939-39.242c.009-1.754.665-14.948,1.6-24.947a3.555,3.555,0,0,0-.727-.814S622.633,282.285,620.6,290.407Z" transform="translate(-606.279 -263.503)" fill="#09314c"/>
        <path id="Trazado_8176-2" data-name="Trazado 8176" d="M590.93,263.283c.02,1.754.212,6.65.478,12.473a12.219,12.219,0,0,1,5.36-1.305c6.853-.254,17.513-.761,19.036,2.284s5.837,23.1,5.33,28.427c-.4,4.2-2.06,21.947-2.249,29.534l4.074.471s2.81-27.988,2.828-31.605c.018-3.431-6.941-38.3-7.952-41.547Z" transform="translate(-588.028 -262.014)" fill="#09314c"/>
      </g>
      <path id="Trazado_8177-2" data-name="Trazado 8177" d="M569.763,211.058a42.1,42.1,0,0,0,1.6-5.059c.124-1.11.741-5.553,1.6-4.32s0,4.937.617,4.32,4.073-4.32,5.43-3.7,1.851,2.222.37,4.936-4.566,4.443-5.183,4.937-1.728,2.591-2.1,2.468S569.763,211.058,569.763,211.058Z" transform="translate(-518.837 -185.883)" fill="#fca88e"/>
      <path id="Trazado_8178-2" data-name="Trazado 8178" d="M578.781,212.452s15.738,7.121,18.329,7.492,11.847-9.873,11.847-9.873,3.949,3.085,3.826,3.455-8.493,13.1-15.23,14.138-19.323-5.129-19.941-6.486S576.56,213.933,578.781,212.452Z" transform="translate(-556.872 -186.5)" fill="#3bb6d7"/>
      <path id="Trazado_8179-2" data-name="Trazado 8179" d="M602.81,268.432s21.05.99,31.262-5.965c0,0-10.459-45.852-12.944-48.224-4.781-4.564-13.368-2.23-19.669.812s-4.346,11.517-3.259,17.384S603.271,247.446,602.81,268.432Z" transform="translate(-594.793 -186.615)" fill="#53d5f4"/>
      <path id="Trazado_8180-2" data-name="Trazado 8180" d="M634.072,262.467s-10.46-45.852-12.945-48.224c-4.781-4.564-13.368-2.23-19.669.812s-4.346,11.517-3.259,17.384c.641,3.46,2.288,8.059,3.438,15.55a20.857,20.857,0,0,0,6.937,3.838c7.149,2.076,13.376,1.614,15.221,3.92,1.336,1.67-2.524,7.207-3.883,11.625C625.039,266.521,630.3,265.039,634.072,262.467Z" transform="translate(-594.792 -186.615)" fill="#3bb6d7"/>
      <path id="Trazado_8181-2" data-name="Trazado 8181" d="M617.177,206.476s.733,6.116.372,7.745,1.986,4.738,6.355,4.235c2.762-.318,3.737-1.5,3.77-3.843s-1.2-3.75-.957-7.717S617.727,205.716,617.177,206.476Z" transform="translate(-607.094 -186.123)" fill="#ed9983"/>
      <path id="Trazado_8182-2" data-name="Trazado 8182" d="M616.395,202.674s-1.311-.782-1.03.849a4.666,4.666,0,0,0,3.728,3.348s4.178,4.739,9.073,3.893,4.548-6.749,3.993-9.719-2.931-10.163-6.52-10.762-10.162,2.931-10.973,5.3S616.395,202.674,616.395,202.674Z" transform="translate(-609.405 -185.077)" fill="#fca88e"/>
      <path id="Trazado_8183-2" data-name="Trazado 8183" d="M621.1,202.578s-1.721.351.1,2.557a9.232,9.232,0,0,0,2.516,1.34,5.562,5.562,0,0,1-4.026-2.375,17.578,17.578,0,0,1-3.464-6.1,5.549,5.549,0,0,1,.558-3.228,5.289,5.289,0,0,1,1.765-4.893c2.354-1.9,4.827-2.273,6.1-3.339s2.133-1.717,3.69-1.663,2.074-.286,2.705-.178,1.266,1.292,1.835,1.878,1.689,1.131,1.613,1.936-.655,1.625-.391,2.118a12.754,12.754,0,0,1,.982,1.829,26.5,26.5,0,0,1,.492,4s-2.841-3.631-3.356-4.118-1.534-.959-1.83-.8a11.193,11.193,0,0,1-2.229,1.9c-1.113.535-3.248.471-3.693.71s-.958.7-1.55,1.023a15.441,15.441,0,0,1-2.614.7,4.379,4.379,0,0,1,1.6,1.684c.739,1.259.24,2.226.307,3.655a15.144,15.144,0,0,0,.681,2.69C622.8,204.085,621.673,202.461,621.1,202.578Z" transform="translate(-614.026 -184.68)" fill="#151528"/>
      <g id="Grupo_4161-2" data-name="Grupo 4161" transform="translate(9.223 9.826)">
        <path id="Trazado_8184-2" data-name="Trazado 8184" d="M610.612,206.739l-3.1,2.118a20.7,20.7,0,0,0-5.2.337,41.368,41.368,0,0,0-10.069,3.374l0,0-.094.046q-.754.357-1.509.74l-.115.06c-.448.229-.9.468-1.342.711-.062.033-.124.064-.185.1l0,0q-1.4.77-2.78,1.624h0l-.041.026q-.812.5-1.613,1.035l-.286.191c-.513.344-1.024.693-1.528,1.053l-.066.046q-.774.551-1.53,1.127l-.324.248c-.5.385-1,.774-1.486,1.172l0,0h0a56.738,56.738,0,0,0-6.405,6.081l0,0c-.036.04-.069.08-.1.12-.135.151-.267.3-.4.456s-.262.3-.389.455-.243.29-.363.435l-.167.2,0,0a37.858,37.858,0,0,0-2.531,3.484,23.789,23.789,0,0,0-2.439,4.886l-3.1,2.117,3.228,5.317.013-.01c1.671,2.718,5.625,3.872,11.476,2.818a44.731,44.731,0,0,0,12.951-4.83h0l.087-.049q.938-.51,1.868-1.057l.071-.041h0a65.418,65.418,0,0,0,6.775-4.608h0l.026-.021q.758-.59,1.494-1.2l.273-.227q1.466-1.225,2.826-2.516l.263-.252q.67-.643,1.311-1.3l.017-.017h0q1.633-1.683,3.029-3.428l0,0c.028-.035.054-.071.081-.106q.32-.4.625-.808c.067-.089.136-.177.2-.267.255-.343.5-.688.739-1.032l.026-.036h0q.341-.5.659-.994c3.323-5.217,3.969-9.515,2.328-12.254l.018-.011Z" transform="translate(-556.594 -196.088)" fill="#e28e07"/>
        <g id="Grupo_4154-2" data-name="Grupo 4154" transform="translate(33.524 10.969)">
          <path id="Trazado_8185-2" data-name="Trazado 8185" d="M572.057,210.178q-1.363.365-2.755.836l11.877,18.438q.76-.815,1.463-1.641l0,0c.03-.035.058-.071.086-.106.119-.14.231-.28.345-.421Z" transform="translate(-563.94 -207.303)" fill="#cc7b06"/>
          <path id="Trazado_8186-2" data-name="Trazado 8186" d="M576.178,212.19c-.608.245-1.216.5-1.826.769l0,0-.1.046c-.216.1-.433.2-.649.3l13.065,20.282c.244-.212.494-.421.733-.635l.279-.252c.364-.33.717-.663,1.068-1Z" transform="translate(-573.601 -207.447)" fill="#cc7b06"/>
          <path id="Trazado_8187-2" data-name="Trazado 8187" d="M568.6,209.03a27.429,27.429,0,0,0-2.737.329c-.1.018-.205.04-.307.059l9.872,15.324c.059-.085.122-.171.179-.255.548-.81,1.018-1.595,1.431-2.358Z" transform="translate(-554.429 -207.221)" fill="#cc7b06"/>
          <path id="Trazado_8188-2" data-name="Trazado 8188" d="M565.779,207.081l-2.328,1.5,6.579,10.212a9.855,9.855,0,0,0,.495-4.344Z" transform="translate(-546.026 -207.081)" fill="#cc7b06"/>
        </g>
        <g id="Grupo_4160-2" data-name="Grupo 4160" transform="translate(0 0)">
          <g id="Grupo_4156-2" data-name="Grupo 4156">
            <path id="Trazado_10118" data-name="Trazado 10118" d="M69.182,11.3C72.188,17.54,62.8,27.643,48.2,33.866s-28.862,6.208-31.869-.033,6.386-16.344,20.98-22.566S66.175,5.059,69.182,11.3Z" transform="translate(34.516 74.975) rotate(-122.789)" fill="#fdcc0e"/>
            <path id="Trazado_8189-2" data-name="Trazado 8189" d="M575.392,203.694a42.936,42.936,0,0,0-8.293,2.39l18.53,11.977C591.99,208.027,587.547,201.63,575.392,203.694Z" transform="translate(-533.817 -195.842)" fill="#ffaa0f"/>
            <path id="Trazado_8190-2" data-name="Trazado 8190" d="M621.194,240.014l-18.11-14.446c-.674.833-1.316,1.668-1.884,2.508-7.078,10.47-2.715,17.242,9.744,15.126A45.274,45.274,0,0,0,621.194,240.014Z" transform="translate(-591.856 -197.437)" fill="#fce63d"/>
            <path id="Trazado_10119" data-name="Trazado 10119" d="M56.774,9.245c2.492,5.106-5.168,13.313-17.108,18.33s-23.64,4.946-26.131-.16S18.7,14.1,30.643,9.085,54.282,4.139,56.774,9.245Z" transform="translate(33.96 66.289) rotate(-122.789)" fill="#ffaa0f"/>
            <g id="Grupo_4155-2" data-name="Grupo 4155" transform="translate(12.616 12.83)">
              <path id="Trazado_8191-2" data-name="Trazado 8191" d="M574.181,210.583l16.754,10.446c.278-.371.548-.743.8-1.115.3-.44.564-.87.812-1.293l-14.758-9.535C576.593,209.521,575.386,210.025,574.181,210.583Z" transform="translate(-555.562 -209.086)" fill="#fce63d"/>
              <path id="Trazado_8192-2" data-name="Trazado 8192" d="M594.053,226l16.286,10.787q1.128-.512,2.25-1.092l-17.129-11.42Q594.713,225.128,594.053,226Z" transform="translate(-594.053 -210.174)" fill="#fce63d"/>
            </g>
            <path id="Trazado_8193-2" data-name="Trazado 8193" d="M575.27,226.066c-2.812,4.5-3.247,8.161-1.675,10.392-1.125-2.26-.545-5.68,2.031-9.8,5.388-8.612,17.444-17.005,26.928-18.746,4.533-.832,7.653.01,9.093,2.053-1.229-2.469-4.5-3.557-9.448-2.649C592.714,209.061,580.657,217.453,575.27,226.066Z" transform="translate(-562.133 -196.106)" fill="#e28e07"/>
          </g>
          <g id="Grupo_4158-2" data-name="Grupo 4158" transform="translate(16.977 20.26)">
            <g id="Grupo_4157-2" data-name="Grupo 4157">
              <path id="Trazado_8194-2" data-name="Trazado 8194" d="M605.262,222.238l2.1-2.326-.255-.4-3.067.521c1-2.43-.358-3.3-3.166-2.82-5.266.894-9.623,7.187-11.822,7.56-1.157.2-1.159-.255-.452-1.3a11.229,11.229,0,0,1,3.1-2.765l-1.439-1.586a20.754,20.754,0,0,0-4.913,4.084l-2.951.5-1.841,2.724.3.383,2.713-.894c-.987,2.255.1,3.3,3.024,2.8,5.064-.86,9.623-7.187,11.937-7.58,1.129-.191,1.292.211.471,1.427a16.171,16.171,0,0,1-3.89,3.631l.256.4,1.885.833a24.661,24.661,0,0,0,5.125-4.7Z" transform="translate(-580.551 -217.089)" fill="#e28e07"/>
            </g>
          </g>
          <g id="Grupo_4159-2" data-name="Grupo 4159" transform="translate(17.222 20.657)">
            <path id="Trazado_8195-2" data-name="Trazado 8195" d="M605.262,222.666l1.841-2.724-3.067.521c1-2.429-.358-3.3-3.165-2.82-5.266.894-9.623,7.187-11.822,7.561-1.158.2-1.159-.255-.453-1.3a11.226,11.226,0,0,1,3.1-2.765l-1.439-1.586a20.776,20.776,0,0,0-4.913,4.085l-2.951.5-1.841,2.723,3.01-.511c-.987,2.256.1,3.3,3.024,2.8,5.064-.86,9.623-7.187,11.938-7.581,1.128-.191,1.291.212.47,1.427a16.164,16.164,0,0,1-3.889,3.631l2.14,1.23a24.643,24.643,0,0,0,5.125-4.7Z" transform="translate(-580.551 -217.517)" fill="#fce63d"/>
          </g>
        </g>
      </g>
      <path id="Trazado_8196-2" data-name="Trazado 8196" d="M591.176,243.153a17.067,17.067,0,0,0,4.213-.776c1.108-.554,4.1-3.215,3.88-1.774s-1.664,2.218-1.552,2.882,1.663,1.441,3.659,1.441,3.88-.554,3.437.333-1.552,1.108-1.664,1.552a2.5,2.5,0,0,1-.887,1.219,4.645,4.645,0,0,1-1.552,1.108c-.776.222-.332.776-1.885.776a17.9,17.9,0,0,1-5.654-1.773,19.181,19.181,0,0,0-3.769-.887Z" transform="translate(-560.197 -188.658)" fill="#fcc89d"/>
      <path id="Trazado_8197-2" data-name="Trazado 8197" d="M609.049,215.7c1.244-.052,1.3,2.209,1.581,3.422.849,3.659,3.317,13.245,6.321,15.582,3.733,2.9,19.774,5.116,19.774,6.084s0,4.149-2.212,5.531-24.062-2.627-26.551-5.808-6.3-14.341-4.915-18.628C604,218.934,607.142,215.777,609.049,215.7Z" transform="translate(-602.753 -186.903)" fill="#53d5f4"/>
    </g>
    <g id="Grupo_4338" data-name="Grupo 4338" transform="translate(486 1669.667)">
      <g id="Grupo_4153-3" data-name="Grupo 4153" transform="translate(3.269 32.641)">
        <path id="Trazado_8172-3" data-name="Trazado 8172" d="M583.759,338.89a21.393,21.393,0,0,0-.31,3.262,22.947,22.947,0,0,0,2.765.433l.309-.385a12.18,12.18,0,0,0,3.06.98,13.374,13.374,0,0,0,2.395-.1,1.075,1.075,0,0,0-.178-1.063c-.31-.279-3.487-1.408-4.078-2.016a3.924,3.924,0,0,1-.78-1.049Z" transform="translate(-571.711 -306.443)" fill="#151528"/>
        <path id="Trazado_8173-3" data-name="Trazado 8173" d="M612.135,350.9a18.707,18.707,0,0,0-.572,2.941,22.962,22.962,0,0,0,2.667.85l.364-.333a12.171,12.171,0,0,0,2.875,1.436,13.33,13.33,0,0,0,2.381.27,1.074,1.074,0,0,0-.014-1.078c-.263-.323-3.231-1.924-3.722-2.615a3.94,3.94,0,0,1-.61-1.156Z" transform="translate(-611.521 -313.383)" fill="#151528"/>
        <path id="Trazado_8174-3" data-name="Trazado 8174" d="M592.25,262.591c.023,2.136.612,14.516.9,17.823.309,3.59-2.215,19.664-2.215,19.664l4.575.261s3.146-16.2,3.155-17.842c0-.819.319-7.125.764-11.708a60.9,60.9,0,0,1,3.036,10.482c.005,1.808.271,13.53.271,13.53l4.081.471s1.278-12.725,1.286-14.37c.008-1.56-3.156-17.415-3.616-18.89Z" transform="translate(-590.93 -262.014)" fill="#0b375a"/>
        <path id="Trazado_8175-3" data-name="Trazado 8175" d="M615.673,286.251c-.923,3.693-.346,8.77-1.27,11.886-.77,2.6-2.742,10.971-2.841,14.083l2.173.124s3.147-16.2,3.155-17.842c0-.8.3-6.8.729-11.342a1.615,1.615,0,0,0-.331-.37S616.6,282.558,615.673,286.251Z" transform="translate(-609.161 -274.019)" fill="#09314c"/>
        <path id="Trazado_8176-3" data-name="Trazado 8176" d="M590.93,262.591c.009.8.1,3.023.217,5.671a5.556,5.556,0,0,1,2.437-.593c3.116-.116,7.963-.346,8.655,1.038s2.654,10.5,2.423,12.925c-.182,1.91-.937,9.978-1.023,13.428l1.853.214s1.278-12.725,1.286-14.37c.008-1.56-3.156-17.415-3.615-18.89Z" transform="translate(-589.611 -262.014)" fill="#09314c"/>
      </g>
      <path id="Trazado_8177-3" data-name="Trazado 8177" d="M569.763,205.827a19.139,19.139,0,0,0,.729-2.3c.056-.5.337-2.525.729-1.964s0,2.245.281,1.964,1.852-1.964,2.469-1.683.842,1.01.168,2.244a7.373,7.373,0,0,1-2.356,2.245c-.281.224-.785,1.178-.954,1.122A11.442,11.442,0,0,1,569.763,205.827Z" transform="translate(-546.609 -194.381)" fill="#fca88e"/>
      <path id="Trazado_8178-3" data-name="Trazado 8178" d="M577.872,211.154s7.155,3.238,8.333,3.406,5.387-4.489,5.387-4.489,1.8,1.4,1.739,1.571-3.862,5.954-6.925,6.428-8.786-2.332-9.066-2.949S576.862,211.827,577.872,211.154Z" transform="translate(-567.911 -199.354)" fill="#3bb6d7"/>
      <path id="Trazado_8179-3" data-name="Trazado 8179" d="M599.661,237.484s9.571.45,14.214-2.712c0,0-4.755-20.847-5.885-21.926-2.174-2.075-6.078-1.014-8.943.369s-1.976,5.236-1.482,7.9S599.871,227.942,599.661,237.484Z" transform="translate(-596.016 -200.285)" fill="#53d5f4"/>
      <path id="Trazado_8180-3" data-name="Trazado 8180" d="M613.874,234.772s-4.756-20.847-5.885-21.926c-2.174-2.075-6.078-1.014-8.943.369s-1.976,5.236-1.482,7.9c.291,1.573,1.04,3.664,1.563,7.07a9.483,9.483,0,0,0,3.154,1.745c3.25.944,6.082.734,6.92,1.782.607.759-1.148,3.277-1.766,5.285A16.618,16.618,0,0,0,613.874,234.772Z" transform="translate(-596.015 -200.285)" fill="#3bb6d7"/>
      <path id="Trazado_8181-3" data-name="Trazado 8181" d="M617.177,205.57a20.3,20.3,0,0,1,.169,3.521c-.164.74.9,2.154,2.89,1.926,1.256-.145,1.7-.681,1.714-1.747s-.548-1.705-.435-3.509S617.427,205.225,617.177,205.57Z" transform="translate(-612.593 -196.317)" fill="#ed9983"/>
      <path id="Trazado_8182-3" data-name="Trazado 8182" d="M615.365,195.881s-.6-.355-.468.386a2.122,2.122,0,0,0,1.7,1.522s1.9,2.155,4.125,1.77,2.068-3.068,1.815-4.419-1.333-4.621-2.964-4.893-4.62,1.332-4.989,2.408S615.365,195.881,615.365,195.881Z" transform="translate(-612.187 -187.88)" fill="#fca88e"/>
      <path id="Trazado_8183-3" data-name="Trazado 8183" d="M618.393,192.818s-.783.16.045,1.162a4.2,4.2,0,0,0,1.144.609,2.529,2.529,0,0,1-1.831-1.08,7.992,7.992,0,0,1-1.575-2.772,2.523,2.523,0,0,1,.254-1.468,2.4,2.4,0,0,1,.8-2.225c1.07-.864,2.195-1.034,2.774-1.518a2.276,2.276,0,0,1,1.678-.756c.708.025.943-.13,1.23-.081s.576.588.834.854.768.514.733.88-.3.739-.178.963a5.789,5.789,0,0,1,.447.831,12.041,12.041,0,0,1,.224,1.819s-1.292-1.651-1.526-1.872-.7-.436-.832-.363a5.088,5.088,0,0,1-1.013.862,12.846,12.846,0,0,1-1.679.323c-.2.108-.436.32-.7.465a7.02,7.02,0,0,1-1.189.32,1.991,1.991,0,0,1,.729.766c.336.572.109,1.012.14,1.662a6.885,6.885,0,0,0,.309,1.223C619.165,193.5,618.653,192.765,618.393,192.818Z" transform="translate(-615.177 -184.68)" fill="#151528"/>
      <g id="Grupo_4161-3" data-name="Grupo 4161" transform="translate(5.241 2.414)">
        <path id="Trazado_8184-3" data-name="Trazado 8184" d="M584.892,206.739l-1.409.963a9.411,9.411,0,0,0-2.364.153,18.808,18.808,0,0,0-4.578,1.534h0l-.043.021q-.343.162-.686.336l-.052.027c-.2.1-.407.213-.61.323l-.084.045h0q-.636.35-1.264.738h0l-.019.012q-.369.229-.733.471l-.13.087c-.234.157-.466.315-.695.479l-.03.021q-.352.251-.7.512l-.148.113c-.228.175-.454.352-.676.533l0,0h0a25.8,25.8,0,0,0-2.912,2.765h0l-.048.054c-.061.069-.121.138-.181.207s-.119.138-.177.207l-.165.2-.076.091h0a17.2,17.2,0,0,0-1.151,1.584,10.816,10.816,0,0,0-1.109,2.221l-1.407.962,1.468,2.417.006,0c.76,1.236,2.558,1.76,5.218,1.281a20.338,20.338,0,0,0,5.888-2.2h0l.04-.022q.427-.232.849-.481l.032-.019h0a29.744,29.744,0,0,0,3.081-2.1h0l.012-.01q.345-.268.679-.545l.124-.1q.666-.557,1.285-1.144l.12-.114q.3-.292.6-.591l.008-.008h0q.743-.765,1.377-1.559h0l.037-.048q.145-.183.284-.367c.031-.041.062-.081.092-.122.116-.156.228-.313.336-.469l.012-.016h0q.155-.226.3-.452c1.511-2.372,1.8-4.326,1.058-5.571l.008-.005Z" transform="translate(-561.38 -199.842)" fill="#e28e07"/>
        <g id="Grupo_4154-3" data-name="Grupo 4154" transform="translate(14.194 7.041)">
          <path id="Trazado_8185-3" data-name="Trazado 8185" d="M570.555,210.178q-.62.166-1.253.38l5.4,8.383q.346-.37.665-.746h0l.039-.048c.054-.064.105-.127.157-.191Z" transform="translate(-566.864 -208.871)" fill="#cc7b06"/>
          <path id="Trazado_8186-3" data-name="Trazado 8186" d="M574.773,212.19c-.276.111-.553.227-.83.349h0l-.046.021c-.1.044-.2.091-.3.136l5.94,9.221c.111-.1.225-.191.333-.289l.127-.114c.165-.15.326-.3.485-.453Z" transform="translate(-573.601 -210.034)" fill="#cc7b06"/>
          <path id="Trazado_8187-3" data-name="Trazado 8187" d="M566.943,209.03a12.472,12.472,0,0,0-1.244.149l-.14.027,4.488,6.967c.027-.039.055-.078.081-.116.249-.368.463-.725.65-1.072Z" transform="translate(-560.499 -208.207)" fill="#cc7b06"/>
          <path id="Trazado_8188-3" data-name="Trazado 8188" d="M564.509,207.081l-1.059.682,2.991,4.643a4.482,4.482,0,0,0,.225-1.975Z" transform="translate(-555.528 -207.081)" fill="#cc7b06"/>
        </g>
        <g id="Grupo_4160-3" data-name="Grupo 4160" transform="translate(0 0)">
          <g id="Grupo_4156-3" data-name="Grupo 4156">
            <path id="Trazado_10118-2" data-name="Trazado 10118" d="M24.283,2.132c1.367,2.837-2.9,7.431-9.539,10.26S1.622,15.215.255,12.377s2.9-7.431,9.539-10.26S22.916-.7,24.283,2.132Z" transform="translate(13.288 28.486) rotate(-122.789)" fill="#fdcc0e"/>
            <path id="Trazado_8189-3" data-name="Trazado 8189" d="M570.87,203.483a19.522,19.522,0,0,0-3.77,1.086l8.425,5.446C578.416,205.453,576.4,202.545,570.87,203.483Z" transform="translate(-553.015 -197.859)" fill="#ffaa0f"/>
            <path id="Trazado_8190-3" data-name="Trazado 8190" d="M608.442,232.136l-8.234-6.568c-.306.379-.6.758-.856,1.14-3.218,4.76-1.235,7.839,4.43,6.877A20.583,20.583,0,0,0,608.442,232.136Z" transform="translate(-596.151 -210.724)" fill="#fce63d"/>
            <path id="Trazado_10119-2" data-name="Trazado 10119" d="M19.873,1.763c1.133,2.321-2.35,6.053-7.778,8.334S1.347,12.345.214,10.024,2.563,3.971,7.992,1.69,18.74-.559,19.873,1.763Z" transform="translate(13.228 25.878) rotate(-122.789)" fill="#ffaa0f"/>
            <g id="Grupo_4155-3" data-name="Grupo 4155" transform="translate(4.688 7.887)">
              <path id="Trazado_8191-3" data-name="Trazado 8191" d="M574.181,209.767l7.617,4.749c.126-.169.249-.338.363-.507.135-.2.257-.4.369-.588l-6.71-4.335C575.278,209.284,574.729,209.513,574.181,209.767Z" transform="translate(-565.716 -209.086)" fill="#fce63d"/>
              <path id="Trazado_8192-3" data-name="Trazado 8192" d="M594.053,225.056l7.4,4.9q.513-.233,1.023-.5l-7.788-5.192Q594.353,224.661,594.053,225.056Z" transform="translate(-594.053 -217.862)" fill="#fce63d"/>
            </g>
            <path id="Trazado_8193-3" data-name="Trazado 8193" d="M573.864,215.67c-1.279,2.045-1.476,3.71-.762,4.725-.512-1.028-.248-2.582.923-4.454,2.45-3.916,7.931-7.732,12.243-8.523,2.061-.378,3.48,0,4.134.933-.559-1.123-2.045-1.617-4.3-1.2C581.8,207.938,576.314,211.754,573.864,215.67Z" transform="translate(-568.939 -199.995)" fill="#e28e07"/>
          </g>
          <g id="Grupo_4158-3" data-name="Grupo 4158" transform="translate(6.671 11.265)">
            <g id="Grupo_4157-3" data-name="Grupo 4157">
              <path id="Trazado_8194-3" data-name="Trazado 8194" d="M591.786,219.43l.953-1.058-.116-.18-1.395.237c.455-1.1-.163-1.5-1.439-1.282-2.394.406-4.375,3.268-5.375,3.437-.526.089-.527-.116-.206-.591a5.106,5.106,0,0,1,1.409-1.257l-.654-.721a9.437,9.437,0,0,0-2.234,1.857l-1.342.228-.837,1.238.135.174,1.233-.406c-.449,1.025.046,1.5,1.375,1.273,2.3-.391,4.375-3.268,5.427-3.446.513-.087.588.1.214.649a7.352,7.352,0,0,1-1.769,1.651l.117.18.857.379a11.212,11.212,0,0,0,2.33-2.137Z" transform="translate(-580.551 -217.089)" fill="#e28e07"/>
            </g>
          </g>
          <g id="Grupo_4159-3" data-name="Grupo 4159" transform="translate(6.782 11.446)">
            <path id="Trazado_8195-3" data-name="Trazado 8195" d="M591.786,219.858l.837-1.238-1.394.237c.456-1.1-.163-1.5-1.439-1.282-2.394.406-4.375,3.268-5.375,3.438-.526.089-.527-.116-.206-.592a5.1,5.1,0,0,1,1.409-1.257l-.654-.721a9.447,9.447,0,0,0-2.234,1.857l-1.342.228-.837,1.238,1.368-.232c-.449,1.026.046,1.5,1.375,1.274,2.3-.391,4.375-3.268,5.428-3.447.513-.087.587.1.214.649a7.349,7.349,0,0,1-1.768,1.651l.973.559a11.2,11.2,0,0,0,2.33-2.138Z" transform="translate(-580.551 -217.517)" fill="#fce63d"/>
          </g>
        </g>
      </g>
      <path id="Trazado_8196-3" data-name="Trazado 8196" d="M590.208,241.531a7.76,7.76,0,0,0,1.915-.353c.5-.252,1.865-1.462,1.764-.807s-.756,1.008-.706,1.311.756.655,1.663.655,1.764-.252,1.563.152-.706.5-.756.706a1.138,1.138,0,0,1-.4.554,2.112,2.112,0,0,1-.706.5c-.353.1-.151.353-.857.353a8.137,8.137,0,0,1-2.571-.806,8.72,8.72,0,0,0-1.714-.4Z" transform="translate(-576.124 -216.755)" fill="#fcc89d"/>
      <path id="Trazado_8197-3" data-name="Trazado 8197" d="M605.616,215.7c.566-.024.591,1,.719,1.556.386,1.663,1.508,6.022,2.874,7.085,1.7,1.32,8.991,2.326,8.991,2.766a2.934,2.934,0,0,1-1.006,2.515c-1.006.629-10.94-1.194-12.072-2.641s-2.863-6.52-2.234-8.469C603.319,217.169,604.749,215.733,605.616,215.7Z" transform="translate(-602.753 -202.606)" fill="#53d5f4"/>
    </g>
    <g id="Grupo_4335-2" data-name="Grupo 4335" transform="translate(-632.959 7879)">
      <rect id="Rectángulo_1842" data-name="Rectángulo 1842" width="44.389" height="11.606" transform="translate(810.602 -6644.001) rotate(-89.83)" fill="#134663"/>
      <rect id="Rectángulo_1845" data-name="Rectángulo 1845" width="40.023" height="1.726" transform="translate(812.132 -6646.115) rotate(-89.83)" fill="#bfbfbd"/>
      <rect id="Rectángulo_1846" data-name="Rectángulo 1846" width="40.023" height="1.726" transform="matrix(0.003, -1, 1, 0.003, 815.509, -6646.115)" fill="#bfbfbd"/>
      <rect id="Rectángulo_1847" data-name="Rectángulo 1847" width="40.023" height="1.726" transform="translate(818.949 -6646.099) rotate(-89.83)" fill="#bfbfbd"/>
      <g id="Grupo_4334-3" data-name="Grupo 4334" transform="translate(730.959 -6727.622)">
        <rect id="Rectángulo_1820" data-name="Rectángulo 1820" width="0.88" height="91.745" transform="matrix(0.003, -1, 1, 0.003, 5.998, 36.166)" fill="#e5e5e5"/>
        <rect id="Rectángulo_1821" data-name="Rectángulo 1821" width="6.545" height="90.237" transform="translate(6.616 93.326) rotate(-89.83)" fill="#fafbfd"/>
        <rect id="Rectángulo_1822" data-name="Rectángulo 1822" width="4.391" height="97.636" transform="translate(2.916 94.033) rotate(-89.83)" fill="#e5e5e5"/>
        <rect id="Rectángulo_1823" data-name="Rectángulo 1823" width="3.955" height="103.452" transform="translate(0 97.051) rotate(-89.83)" fill="#134663"/>
        <rect id="Rectángulo_1824" data-name="Rectángulo 1824" width="44.389" height="11.606" transform="translate(12.268 83.418) rotate(-89.83)" fill="#134663"/>
        <rect id="Rectángulo_1825" data-name="Rectángulo 1825" width="3.922" height="13.903" transform="translate(11.247 40.097) rotate(-89.83)" fill="#134663"/>
        <rect id="Rectángulo_1826" data-name="Rectángulo 1826" width="3.922" height="13.903" transform="translate(11.113 86.761) rotate(-89.83)" fill="#134663"/>
        <rect id="Rectángulo_1827" data-name="Rectángulo 1827" width="40.023" height="1.726" transform="matrix(0.003, -1, 1, 0.003, 13.767, 81.297)" fill="#bfbfbd"/>
        <rect id="Rectángulo_1828" data-name="Rectángulo 1828" width="40.023" height="1.726" transform="translate(17.219 81.33) rotate(-89.83)" fill="#bfbfbd"/>
        <rect id="Rectángulo_1829" data-name="Rectángulo 1829" width="40.023" height="1.726" transform="matrix(0.003, -1, 1, 0.003, 20.599, 81.322)" fill="#bfbfbd"/>
        <rect id="Rectángulo_1830" data-name="Rectángulo 1830" width="44.389" height="11.606" transform="translate(34.726 83.485) rotate(-89.83)" fill="#134663"/>
        <rect id="Rectángulo_1831" data-name="Rectángulo 1831" width="3.922" height="13.903" transform="translate(33.705 40.164) rotate(-89.83)" fill="#134663"/>
        <rect id="Rectángulo_1832" data-name="Rectángulo 1832" width="3.922" height="13.903" transform="translate(33.579 86.82) rotate(-89.83)" fill="#134663"/>
        <rect id="Rectángulo_1833" data-name="Rectángulo 1833" width="40.023" height="1.726" transform="matrix(0.003, -1, 1, 0.003, 36.221, 81.372)" fill="#bfbfbd"/>
        <rect id="Rectángulo_1834" data-name="Rectángulo 1834" width="40.023" height="1.726" transform="matrix(0.003, -1, 1, 0.003, 39.642, 81.381)" fill="#bfbfbd"/>
        <rect id="Rectángulo_1835" data-name="Rectángulo 1835" width="40.023" height="1.726" transform="translate(43.089 81.397) rotate(-89.83)" fill="#bfbfbd"/>
        <rect id="Rectángulo_1836" data-name="Rectángulo 1836" width="44.389" height="11.606" transform="translate(57.193 83.544) rotate(-89.83)" fill="#134663"/>
        <rect id="Rectángulo_1837" data-name="Rectángulo 1837" width="3.922" height="13.903" transform="translate(56.164 40.223) rotate(-89.83)" fill="#134663"/>
        <rect id="Rectángulo_1838" data-name="Rectángulo 1838" width="3.922" height="13.903" transform="translate(56.038 86.887) rotate(-89.83)" fill="#134663"/>
        <rect id="Rectángulo_1839" data-name="Rectángulo 1839" width="40.023" height="1.726" transform="translate(58.689 81.439) rotate(-89.83)" fill="#bfbfbd"/>
        <rect id="Rectángulo_1840" data-name="Rectángulo 1840" width="40.023" height="1.726" transform="matrix(0.003, -1, 1, 0.003, 62.096, 81.439)" fill="#bfbfbd"/>
        <rect id="Rectángulo_1841" data-name="Rectángulo 1841" width="40.023" height="1.726" transform="matrix(0.003, -1, 1, 0.003, 65.516, 81.448)" fill="#bfbfbd"/>
        <rect id="Rectángulo_1843" data-name="Rectángulo 1843" width="3.922" height="13.903" transform="matrix(0.003, -1, 1, 0.003, 78.575, 40.279)" fill="#134663"/>
        <rect id="Rectángulo_1844" data-name="Rectángulo 1844" width="3.922" height="13.903" transform="translate(78.487 86.963) rotate(-89.83)" fill="#134663"/>
        <path id="Trazado_5244" data-name="Trazado 5244" d="M327.13,73.3,373.1,40l45.772,33.562v1.994L327.13,75.3Z" transform="translate(-321.121 -40)" fill="#bfbfbd"/>
        <path id="Trazado_5245" data-name="Trazado 5245" d="M327.13,75.682l45.965-33.3,45.78,33.562Z" transform="translate(-321.121 -40.386)" fill="#134663"/>
        <path id="Trazado_5246" data-name="Trazado 5246" d="M344.23,72.543l31.618-22.9,31.484,23.087Z" transform="translate(-323.891 -41.562)" fill="#c8c8ca"/>
        <path id="Trazado_5247" data-name="Trazado 5247" d="M379.564,57.068c0-2.162,1.349-2.858,3.008-2.9v-1.3h1.441v1.316a9.972,9.972,0,0,1,2.615.469v1.927c-.913-.084-2.514-.159-3.285-.159-.838,0-1.307.059-1.307.888v.377c0,.654.268.913,1.064.913h1.215c2.246,0,2.707,1.835,2.7,3.05v.629c0,2.573-1.534,3.151-3.042,3.151v1.24H382.53V65.415a7.877,7.877,0,0,1-2.656-.469V63.035c.6.05,2.087.159,3.495.159.637,0,1.156-.142,1.156-.838v-.411c0-.545-.168-.838-.913-.838h-1.173a2.742,2.742,0,0,1-2.908-3.059Z" transform="translate(-330.431 -38.733)" fill="#fafbfd"/>
      </g>
    </g>
    <g id="Grupo_4337" data-name="Grupo 4337" transform="translate(-595.961 8400)">
      <rect id="Rectángulo_1842-2" data-name="Rectángulo 1842" width="24.884" height="6.507" transform="translate(775.607 -6680.745) rotate(-89.83)" fill="#134663"/>
      <rect id="Rectángulo_1845-2" data-name="Rectángulo 1845" width="22.437" height="0.968" transform="translate(776.464 -6681.93) rotate(-89.83)" fill="#bfbfbd"/>
      <rect id="Rectángulo_1846-2" data-name="Rectángulo 1846" width="22.437" height="0.968" transform="matrix(0.003, -1, 1, 0.003, 778.358, -6681.93)" fill="#bfbfbd"/>
      <rect id="Rectángulo_1847-2" data-name="Rectángulo 1847" width="22.437" height="0.968" transform="translate(780.286 -6681.92) rotate(-89.83)" fill="#bfbfbd"/>
      <g id="Grupo_4334-4" data-name="Grupo 4334" transform="translate(730.959 -6727.622)">
        <rect id="Rectángulo_1820-2" data-name="Rectángulo 1820" width="0.493" height="51.432" transform="matrix(0.003, -1, 1, 0.003, 3.362, 20.275)" fill="#e5e5e5"/>
        <rect id="Rectángulo_1821-2" data-name="Rectángulo 1821" width="3.669" height="50.586" transform="translate(3.709 52.318) rotate(-89.83)" fill="#fafbfd"/>
        <rect id="Rectángulo_1822-2" data-name="Rectángulo 1822" width="2.462" height="54.734" transform="translate(1.634 52.714) rotate(-89.83)" fill="#e5e5e5"/>
        <rect id="Rectángulo_1823-2" data-name="Rectángulo 1823" width="2.217" height="57.995" transform="translate(0 54.406) rotate(-89.83)" fill="#134663"/>
        <rect id="Rectángulo_1824-2" data-name="Rectángulo 1824" width="24.884" height="6.507" transform="translate(6.877 46.764) rotate(-89.83)" fill="#134663"/>
        <rect id="Rectángulo_1825-2" data-name="Rectángulo 1825" width="2.199" height="7.794" transform="translate(6.305 22.478) rotate(-89.83)" fill="#134663"/>
        <rect id="Rectángulo_1826-2" data-name="Rectángulo 1826" width="2.199" height="7.794" transform="translate(6.23 48.638) rotate(-89.83)" fill="#134663"/>
        <rect id="Rectángulo_1827-2" data-name="Rectángulo 1827" width="22.437" height="0.968" transform="matrix(0.003, -1, 1, 0.003, 7.718, 45.575)" fill="#bfbfbd"/>
        <rect id="Rectángulo_1828-2" data-name="Rectángulo 1828" width="22.437" height="0.968" transform="translate(9.653 45.593) rotate(-89.83)" fill="#bfbfbd"/>
        <rect id="Rectángulo_1829-2" data-name="Rectángulo 1829" width="22.437" height="0.968" transform="matrix(0.003, -1, 1, 0.003, 11.548, 45.588)" fill="#bfbfbd"/>
        <rect id="Rectángulo_1830-2" data-name="Rectángulo 1830" width="24.884" height="6.507" transform="translate(19.467 46.801) rotate(-89.83)" fill="#134663"/>
        <rect id="Rectángulo_1831-2" data-name="Rectángulo 1831" width="2.199" height="7.794" transform="translate(18.895 22.516) rotate(-89.83)" fill="#134663"/>
        <rect id="Rectángulo_1832-2" data-name="Rectángulo 1832" width="2.199" height="7.794" transform="translate(18.824 48.671) rotate(-89.83)" fill="#134663"/>
        <rect id="Rectángulo_1833-2" data-name="Rectángulo 1833" width="22.437" height="0.968" transform="matrix(0.003, -1, 1, 0.003, 20.305, 45.617)" fill="#bfbfbd"/>
        <rect id="Rectángulo_1834-2" data-name="Rectángulo 1834" width="22.437" height="0.968" transform="matrix(0.003, -1, 1, 0.003, 22.223, 45.622)" fill="#bfbfbd"/>
        <rect id="Rectángulo_1835-2" data-name="Rectángulo 1835" width="22.437" height="0.968" transform="translate(24.156 45.631) rotate(-89.83)" fill="#bfbfbd"/>
        <rect id="Rectángulo_1836-2" data-name="Rectángulo 1836" width="24.884" height="6.507" transform="translate(32.062 46.835) rotate(-89.83)" fill="#134663"/>
        <rect id="Rectángulo_1837-2" data-name="Rectángulo 1837" width="2.199" height="7.794" transform="translate(31.485 22.549) rotate(-89.83)" fill="#134663"/>
        <rect id="Rectángulo_1838-2" data-name="Rectángulo 1838" width="2.199" height="7.794" transform="translate(31.414 48.709) rotate(-89.83)" fill="#134663"/>
        <rect id="Rectángulo_1839-2" data-name="Rectángulo 1839" width="22.437" height="0.968" transform="translate(32.901 45.654) rotate(-89.83)" fill="#bfbfbd"/>
        <rect id="Rectángulo_1840-2" data-name="Rectángulo 1840" width="22.437" height="0.968" transform="matrix(0.003, -1, 1, 0.003, 34.811, 45.655)" fill="#bfbfbd"/>
        <rect id="Rectángulo_1841-2" data-name="Rectángulo 1841" width="22.437" height="0.968" transform="matrix(0.003, -1, 1, 0.003, 36.728, 45.659)" fill="#bfbfbd"/>
        <rect id="Rectángulo_1843-2" data-name="Rectángulo 1843" width="2.199" height="7.794" transform="matrix(0.003, -1, 1, 0.003, 44.049, 22.58)" fill="#134663"/>
        <rect id="Rectángulo_1844-2" data-name="Rectángulo 1844" width="2.199" height="7.794" transform="translate(44 48.751) rotate(-89.83)" fill="#134663"/>
        <path id="Trazado_5244-2" data-name="Trazado 5244" d="M327.13,58.669,352.9,40l25.66,18.815v1.118l-51.432-.146Z" transform="translate(-323.761 -40)" fill="#bfbfbd"/>
        <path id="Trazado_5245-2" data-name="Trazado 5245" d="M327.13,61.049,352.9,42.38l25.664,18.815Z" transform="translate(-323.761 -41.262)" fill="#134663"/>
        <path id="Trazado_5246-2" data-name="Trazado 5246" d="M344.23,62.479,361.955,49.64,379.6,62.583Z" transform="translate(-332.828 -45.111)" fill="#c8c8ca"/>
        <path id="Trazado_5247-2" data-name="Trazado 5247" d="M379.549,55.224c0-1.212.756-1.6,1.687-1.625V52.87h.808v.738a5.59,5.59,0,0,1,1.466.263v1.081c-.512-.047-1.409-.089-1.842-.089-.47,0-.733.033-.733.5v.211c0,.366.15.512.6.512h.681a1.5,1.5,0,0,1,1.513,1.71v.352c0,1.442-.86,1.766-1.705,1.766v.7h-.808v-.7a4.416,4.416,0,0,1-1.489-.263V58.568c.338.028,1.17.089,1.959.089.357,0,.648-.08.648-.47v-.23c0-.305-.094-.47-.512-.47h-.658a1.537,1.537,0,0,1-1.63-1.715Z" transform="translate(-352.005 -44.945)" fill="#fafbfd"/>
      </g>
    </g>
    <g id="Grupo_4336" data-name="Grupo 4336" transform="translate(220.041 7882)">
      <rect id="Rectángulo_1842-3" data-name="Rectángulo 1842" width="44.389" height="11.606" transform="translate(810.602 -6644.001) rotate(-89.83)" fill="#134663"/>
      <rect id="Rectángulo_1845-3" data-name="Rectángulo 1845" width="40.023" height="1.726" transform="translate(812.132 -6646.115) rotate(-89.83)" fill="#bfbfbd"/>
      <rect id="Rectángulo_1846-3" data-name="Rectángulo 1846" width="40.023" height="1.726" transform="matrix(0.003, -1, 1, 0.003, 815.509, -6646.115)" fill="#bfbfbd"/>
      <rect id="Rectángulo_1847-3" data-name="Rectángulo 1847" width="40.023" height="1.726" transform="translate(818.949 -6646.099) rotate(-89.83)" fill="#bfbfbd"/>
      <g id="Grupo_4334-5" data-name="Grupo 4334" transform="translate(730.959 -6727.622)">
        <rect id="Rectángulo_1820-3" data-name="Rectángulo 1820" width="0.88" height="91.745" transform="matrix(0.003, -1, 1, 0.003, 5.998, 36.166)" fill="#e5e5e5"/>
        <rect id="Rectángulo_1821-3" data-name="Rectángulo 1821" width="6.545" height="90.237" transform="translate(6.616 93.326) rotate(-89.83)" fill="#fafbfd"/>
        <rect id="Rectángulo_1822-3" data-name="Rectángulo 1822" width="4.391" height="97.636" transform="translate(2.916 94.033) rotate(-89.83)" fill="#e5e5e5"/>
        <rect id="Rectángulo_1823-3" data-name="Rectángulo 1823" width="3.955" height="103.452" transform="translate(0 97.051) rotate(-89.83)" fill="#134663"/>
        <rect id="Rectángulo_1824-3" data-name="Rectángulo 1824" width="44.389" height="11.606" transform="translate(12.268 83.418) rotate(-89.83)" fill="#134663"/>
        <rect id="Rectángulo_1825-3" data-name="Rectángulo 1825" width="3.922" height="13.903" transform="translate(11.247 40.097) rotate(-89.83)" fill="#134663"/>
        <rect id="Rectángulo_1826-3" data-name="Rectángulo 1826" width="3.922" height="13.903" transform="translate(11.113 86.761) rotate(-89.83)" fill="#134663"/>
        <rect id="Rectángulo_1827-3" data-name="Rectángulo 1827" width="40.023" height="1.726" transform="matrix(0.003, -1, 1, 0.003, 13.767, 81.297)" fill="#bfbfbd"/>
        <rect id="Rectángulo_1828-3" data-name="Rectángulo 1828" width="40.023" height="1.726" transform="translate(17.219 81.33) rotate(-89.83)" fill="#bfbfbd"/>
        <rect id="Rectángulo_1829-3" data-name="Rectángulo 1829" width="40.023" height="1.726" transform="matrix(0.003, -1, 1, 0.003, 20.599, 81.322)" fill="#bfbfbd"/>
        <rect id="Rectángulo_1830-3" data-name="Rectángulo 1830" width="44.389" height="11.606" transform="translate(34.726 83.485) rotate(-89.83)" fill="#134663"/>
        <rect id="Rectángulo_1831-3" data-name="Rectángulo 1831" width="3.922" height="13.903" transform="translate(33.705 40.164) rotate(-89.83)" fill="#134663"/>
        <rect id="Rectángulo_1832-3" data-name="Rectángulo 1832" width="3.922" height="13.903" transform="translate(33.579 86.82) rotate(-89.83)" fill="#134663"/>
        <rect id="Rectángulo_1833-3" data-name="Rectángulo 1833" width="40.023" height="1.726" transform="matrix(0.003, -1, 1, 0.003, 36.221, 81.372)" fill="#bfbfbd"/>
        <rect id="Rectángulo_1834-3" data-name="Rectángulo 1834" width="40.023" height="1.726" transform="matrix(0.003, -1, 1, 0.003, 39.642, 81.381)" fill="#bfbfbd"/>
        <rect id="Rectángulo_1835-3" data-name="Rectángulo 1835" width="40.023" height="1.726" transform="translate(43.089 81.397) rotate(-89.83)" fill="#bfbfbd"/>
        <rect id="Rectángulo_1836-3" data-name="Rectángulo 1836" width="44.389" height="11.606" transform="translate(57.193 83.544) rotate(-89.83)" fill="#134663"/>
        <rect id="Rectángulo_1837-3" data-name="Rectángulo 1837" width="3.922" height="13.903" transform="translate(56.164 40.223) rotate(-89.83)" fill="#134663"/>
        <rect id="Rectángulo_1838-3" data-name="Rectángulo 1838" width="3.922" height="13.903" transform="translate(56.038 86.887) rotate(-89.83)" fill="#134663"/>
        <rect id="Rectángulo_1839-3" data-name="Rectángulo 1839" width="40.023" height="1.726" transform="translate(58.689 81.439) rotate(-89.83)" fill="#bfbfbd"/>
        <rect id="Rectángulo_1840-3" data-name="Rectángulo 1840" width="40.023" height="1.726" transform="matrix(0.003, -1, 1, 0.003, 62.096, 81.439)" fill="#bfbfbd"/>
        <rect id="Rectángulo_1841-3" data-name="Rectángulo 1841" width="40.023" height="1.726" transform="matrix(0.003, -1, 1, 0.003, 65.516, 81.448)" fill="#bfbfbd"/>
        <rect id="Rectángulo_1843-3" data-name="Rectángulo 1843" width="3.922" height="13.903" transform="matrix(0.003, -1, 1, 0.003, 78.575, 40.279)" fill="#134663"/>
        <rect id="Rectángulo_1844-3" data-name="Rectángulo 1844" width="3.922" height="13.903" transform="translate(78.487 86.963) rotate(-89.83)" fill="#134663"/>
        <path id="Trazado_5244-3" data-name="Trazado 5244" d="M327.13,73.3,373.1,40l45.772,33.562v1.994L327.13,75.3Z" transform="translate(-321.121 -40)" fill="#bfbfbd"/>
        <path id="Trazado_5245-3" data-name="Trazado 5245" d="M327.13,75.682l45.965-33.3,45.78,33.562Z" transform="translate(-321.121 -40.386)" fill="#134663"/>
        <path id="Trazado_5246-3" data-name="Trazado 5246" d="M344.23,72.543l31.618-22.9,31.484,23.087Z" transform="translate(-323.891 -41.562)" fill="#c8c8ca"/>
        <path id="Trazado_5247-3" data-name="Trazado 5247" d="M379.564,57.068c0-2.162,1.349-2.858,3.008-2.9v-1.3h1.441v1.316a9.972,9.972,0,0,1,2.615.469v1.927c-.913-.084-2.514-.159-3.285-.159-.838,0-1.307.059-1.307.888v.377c0,.654.268.913,1.064.913h1.215c2.246,0,2.707,1.835,2.7,3.05v.629c0,2.573-1.534,3.151-3.042,3.151v1.24H382.53V65.415a7.877,7.877,0,0,1-2.656-.469V63.035c.6.05,2.087.159,3.495.159.637,0,1.156-.142,1.156-.838v-.411c0-.545-.168-.838-.913-.838h-1.173a2.742,2.742,0,0,1-2.908-3.059Z" transform="translate(-330.431 -38.733)" fill="#fafbfd"/>
      </g>
    </g>
    <g id="Grupo_4341" data-name="Grupo 4341" transform="translate(0 12)">
      <g id="Grupo_4340" data-name="Grupo 4340">
        <path id="Sustracción_1" data-name="Sustracción 1" d="M-1716.5,6942.162h-.017a101.01,101.01,0,0,1-19.834-1.961,99.414,99.414,0,0,1-18.489-5.627,99.171,99.171,0,0,1-16.732-8.9,98.818,98.818,0,0,1-14.578-11.794,97.751,97.751,0,0,1-12.028-14.293,96.039,96.039,0,0,1-9.082-16.405,94.74,94.74,0,0,1-5.739-18.129,95.467,95.467,0,0,1-2-19.464,95.467,95.467,0,0,1,2-19.464,94.74,94.74,0,0,1,5.739-18.129,96.02,96.02,0,0,1,9.082-16.406,97.743,97.743,0,0,1,12.028-14.293,98.818,98.818,0,0,1,14.578-11.794,99.175,99.175,0,0,1,16.732-8.9,99.411,99.411,0,0,1,18.489-5.627A101.1,101.1,0,0,1-1716.5,6749Z" transform="translate(2292 -5479)" fill="#43a047"/>
        <path id="Sustracción_2" data-name="Sustracción 2" d="M-1716.5,6942.162h-.017a101.01,101.01,0,0,1-19.834-1.961,99.414,99.414,0,0,1-18.489-5.627,99.171,99.171,0,0,1-16.732-8.9,98.818,98.818,0,0,1-14.578-11.794,97.751,97.751,0,0,1-12.028-14.293,96.039,96.039,0,0,1-9.082-16.405,94.74,94.74,0,0,1-5.739-18.129,95.467,95.467,0,0,1-2-19.464,95.467,95.467,0,0,1,2-19.464,94.74,94.74,0,0,1,5.739-18.129,96.02,96.02,0,0,1,9.082-16.406,97.743,97.743,0,0,1,12.028-14.293,98.818,98.818,0,0,1,14.578-11.794,99.175,99.175,0,0,1,16.732-8.9,99.411,99.411,0,0,1,18.489-5.627A101.1,101.1,0,0,1-1716.5,6749Z" transform="translate(-1139.501 8212.162) rotate(180)" fill="#ad9447"/>
      </g>
      <text id="_1993a_2018" data-name="1993a
2018" transform="translate(498.5 1337)" fill="#fff" stroke="rgba(0,0,0,0)" stroke-width="1" font-size="18" font-family="OpenSans-Bold, Open Sans" font-weight="700"><tspan x="3.951" y="19">1993</tspan><tspan x="19.064" y="37">a</tspan><tspan x="3.951" y="55">2018</tspan></text>
      <text id="_2013_a_hoy_2019" data-name="2013
a hoy 2019" transform="translate(600.5 1337)" fill="#fff" stroke="rgba(0,0,0,0)" stroke-width="1" font-size="18" font-family="OpenSans-Bold, Open Sans" font-weight="700"><tspan x="3.951" y="19">2013</tspan><tspan x="0.299" y="37">a hoy </tspan><tspan x="3.951" y="55">2019</tspan></text>
      <rect id="Rectángulo_2427" data-name="Rectángulo 2427" width="84" height="31" rx="15.5" transform="translate(534 1298)" fill="#fff"/>
      <rect id="Rectángulo_2428" data-name="Rectángulo 2428" width="84" height="31" rx="15.5" transform="translate(534 1407)" fill="#fff"/>
      <text id="COLGAP" transform="translate(540 1302)" fill="#0d47a0" stroke="rgba(0,0,0,0)" stroke-width="1" font-size="18" font-family="OpenSans-Bold, Open Sans" font-weight="700"><tspan x="0" y="19">COLGAP</tspan></text>
      <text id="_2009" data-name="2009" transform="translate(551.5 1408.966)" fill="#0d47a0" stroke="rgba(0,0,0,0)" stroke-width="1" font-size="18" font-family="OpenSans-Bold, Open Sans" font-weight="700"><tspan x="3.951" y="19">2009</tspan></text>
    </g>
  </g>
</svg>
